<svg width="39" height="39" xmlns="http://www.w3.org/2000/svg" xmlns:xlink="http://www.w3.org/1999/xlink">
    <defs>
        <path id="a" d="M0 0h38.519v38.519H0z"/>
    </defs>
    <g fill="none" fill-rule="evenodd">
        <mask id="b" fill="#fff">
            <use xlink:href="#a"/>
        </mask>
        <path d="M22.258 31.75v-6.504c0-.26 0-.26.254-.261 1.338 0 2.675-.003 4.012.003.164.001.234-.04.26-.214.258-1.737.523-3.473.792-5.208.024-.157-.027-.182-.165-.182-1.638.004-3.276.003-4.914.002-.239 0-.24 0-.24-.243 0-1.125-.005-2.25.003-3.374.004-.71.136-1.388.57-1.974.425-.574 1.014-.877 1.698-.993.332-.056.673-.07 1.01-.076a79.44 79.44 0 0 1 2.078 0c.156.002.215-.036.215-.206a590.171 590.171 0 0 1-.001-4.363c0-.15-.047-.208-.196-.23a32.753 32.753 0 0 0-3.508-.331c-.989-.037-1.965.02-2.923.272-1.19.311-2.238.881-3.086 1.79-.889.953-1.4 2.1-1.66 3.37a9.82 9.82 0 0 0-.196 1.98v4.153c0 .224 0 .225-.224.225H11.59c-.222 0-.223.001-.223.224v5.142c0 .232 0 .233.233.233h4.431c.23 0 .23.001.23.236v13.073c0 .243-.002.245-.23.206a18.949 18.949 0 0 1-8.872-4.033 19.212 19.212 0 0 1-5.412-7.003A19.318 19.318 0 0 1 .14 21.73a19.567 19.567 0 0 1-.114-3.334 19.167 19.167 0 0 1 1.65-6.93 19.282 19.282 0 0 1 4.523-6.328 19.096 19.096 0 0 1 6.674-4.047A18.471 18.471 0 0 1 17.744.056C21.58-.222 25.2.54 28.577 2.415a19.143 19.143 0 0 1 3.962 2.93 19.267 19.267 0 0 1 3.944 5.352c1.04 2.083 1.695 4.286 1.92 6.608.075.784.125 1.575.114 2.362a19.228 19.228 0 0 1-2.18 8.692 19.311 19.311 0 0 1-3.002 4.258 19.233 19.233 0 0 1-5.712 4.238 18.686 18.686 0 0 1-5.125 1.643c-.24.04-.24.04-.24-.211V31.75" fill="#FFF" mask="url(#b)"/>
    </g>
</svg>
